<?xml version="1.0" encoding="utf-8" ?>
<svg xmlns="http://www.w3.org/2000/svg" xmlns:xlink="http://www.w3.org/1999/xlink" width="1024" height="1024">
	<defs>
		<linearGradient id="gradient_0" gradientUnits="userSpaceOnUse" x1="74.552643" y1="190.23805" x2="128.02058" y2="247.79315">
			<stop offset="0" stop-color="#FBFFFE"/>
			<stop offset="1" stop-color="#B93BDA"/>
		</linearGradient>
	</defs>
	<path fill="url(#gradient_0)" transform="scale(2 2)" d="M104.717 163.417C105.587 163.342 105.639 163.26 106.316 162.692C107.478 168.974 105.805 201.846 107.206 203.447C108.158 203.731 109.082 203.897 110.063 204.045C108.947 204.097 107.87 204.123 106.753 204.045L106.74 261.327C106.731 263.768 106.564 266.269 106.753 268.701C71.1296 269.438 49.918 222.819 72.0719 192.862C74.3775 189.744 101.23 165.297 104.717 163.417Z"/>
	<defs>
		<linearGradient id="gradient_1" gradientUnits="userSpaceOnUse" x1="417.73856" y1="384.71408" x2="172.91286" y2="139.05821">
			<stop offset="0" stop-color="#BB00DA"/>
			<stop offset="1" stop-color="#AA29D1"/>
		</linearGradient>
	</defs>
	<path fill="url(#gradient_1)" transform="scale(2 2)" d="M104.717 163.417C107.576 160.715 107.588 157.212 108.09 153.564C110.941 132.858 122.261 121.789 136.005 108.056L157.147 86.8087C175.174 68.964 189.5 50.4746 218.266 54.6279C240.216 57.7971 259.66 78.7907 256.27 101.739C258.382 101.659 260.49 101.536 262.598 101.739L380.168 101.732C388.472 101.734 396.896 101.407 405.066 103.163C431.609 108.87 449.588 132.548 449.513 159.544L449.47 318.291C449.481 326.488 450.146 335.223 448.453 343.268C442.491 371.604 418.488 385.401 391.496 386.733C387.007 389.871 381.2 399.567 375.596 403.92C372.563 407.6 363.732 416.316 359.799 419.295C349.054 431.057 326.668 448.812 312.283 452.777C296.669 457.081 280.222 452.586 269.479 440.201C257.345 426.211 254.923 404.678 256.27 386.733C247.604 386.541 238.89 386.724 230.22 386.726L165.229 386.731C137.236 386.521 115.216 372.568 108.282 343.84C104.91 329.868 106.526 285.38 106.753 268.701C106.564 266.269 106.731 263.768 106.74 261.327L106.753 204.045C107.87 204.123 108.947 204.097 110.063 204.045C109.082 203.897 108.158 203.731 107.206 203.447C105.805 201.846 107.478 168.974 106.316 162.692C105.639 163.26 105.587 163.342 104.717 163.417Z"/>
	<defs>
		<linearGradient id="gradient_2" gradientUnits="userSpaceOnUse" x1="354.63101" y1="439.7872" x2="308.99268" y2="283.28091">
			<stop offset="0" stop-color="#CB11DB"/>
			<stop offset="1" stop-color="#B140D9"/>
		</linearGradient>
	</defs>
	<path fill="url(#gradient_2)" transform="scale(2 2)" d="M256.27 386.733C257.384 384.816 258.529 376.798 259.319 373.89C265.195 352.267 277.166 339.111 292.36 323.483L319.465 296.081C330.847 284.67 338.712 273.115 355.35 269.672C378.017 264.982 399.967 279.646 404.354 302.369C405.995 310.873 405.235 321.25 405.238 329.961C405.248 357.368 407.102 363.697 391.496 386.733C387.007 389.871 381.2 399.567 375.596 403.92C372.563 407.6 363.732 416.316 359.799 419.295C349.054 431.057 326.668 448.812 312.283 452.777C296.669 457.081 280.222 452.586 269.479 440.201C257.345 426.211 254.923 404.678 256.27 386.733Z"/>
	<path fill="#C30FD8" transform="scale(2 2)" d="M359.799 419.295C359.04 417.021 365.205 417.181 361.642 413.414L361.377 413.137C362.329 412.23 364.587 411.431 365.864 411.61L365.965 412.254L366.506 412.284L366.155 412.447C369.498 409.815 372.001 406.046 375.421 403.552L375.596 403.92C372.563 407.6 363.732 416.316 359.799 419.295Z"/>
	<defs>
		<linearGradient id="gradient_3" gradientUnits="userSpaceOnUse" x1="360.50598" y1="203.98123" x2="115.8072" y2="128.03838">
			<stop offset="0" stop-color="#6D15D5"/>
			<stop offset="1" stop-color="white"/>
		</linearGradient>
	</defs>
	<path fill="url(#gradient_3)" transform="scale(2 2)" d="M104.717 163.417C107.576 160.715 107.588 157.212 108.09 153.564C110.941 132.858 122.261 121.789 136.005 108.056L157.147 86.8087C175.174 68.964 189.5 50.4746 218.266 54.6279C240.216 57.7971 259.66 78.7907 256.27 101.739C258.382 101.659 260.49 101.536 262.598 101.739C260.486 101.798 258.382 101.775 256.27 101.739C257.007 107.614 255.494 113.338 255.23 119.201C254.093 144.449 272.175 166.5 296.659 171.353C305.809 173.167 315.162 171.977 324.367 173.085C341.575 175.157 354.057 188.341 356.174 205.342C360.872 243.067 322.469 275.557 287.503 279.513C253.23 283.39 219.256 266.016 203.88 235.038C199.819 226.855 198.084 217.802 194.32 209.554C183.336 185.484 152.195 175.552 130.811 191.922C123.302 197.67 119.462 201.074 110.063 204.045C109.082 203.897 108.158 203.731 107.206 203.447C105.805 201.846 107.478 168.974 106.316 162.692C105.639 163.26 105.587 163.342 104.717 163.417Z"/>
</svg>
